<?xml version="1.0" encoding="UTF-8" standalone="no"?>
<!-- Created with Inkscape (http://www.inkscape.org/) -->

<svg
   xmlns:dc="http://purl.org/dc/elements/1.1/"
   xmlns:cc="http://creativecommons.org/ns#"
   xmlns:rdf="http://www.w3.org/1999/02/22-rdf-syntax-ns#"
   xmlns:svg="http://www.w3.org/2000/svg"
   xmlns="http://www.w3.org/2000/svg"
   xmlns:sodipodi="http://sodipodi.sourceforge.net/DTD/sodipodi-0.dtd"
   xmlns:inkscape="http://www.inkscape.org/namespaces/inkscape"
   id="svg2"
   version="1.1"
   inkscape:version="0.92.3 (2405546, 2018-03-11)"
   xml:space="preserve"
   width="2629.0266"
   height="2541.6472"
   viewBox="0 0 2629.0269 2541.6471"
   sodipodi:docname="rectify.svg"
   inkscape:export-filename="/home/eric/data/WORK/PROJECT/TOOL/RECTIFY/LOGO/rectify.png"
   inkscape:export-xdpi="90"
   inkscape:export-ydpi="90"
   style="enable-background:new"><metadata
     id="metadata8"><rdf:RDF><cc:Work
         rdf:about=""><dc:format>image/svg+xml</dc:format><dc:type
           rdf:resource="http://purl.org/dc/dcmitype/StillImage" /><dc:title></dc:title></cc:Work></rdf:RDF></metadata><defs
     id="defs6"><inkscape:perspective
       sodipodi:type="inkscape:persp3d"
       inkscape:vp_x="-618.06794 : -957.87264 : 1"
       inkscape:vp_y="0 : 1405.882 : 0"
       inkscape:vp_z="3276.7102 : -957.87264 : 1"
       inkscape:persp3d-origin="1329.3211 : -1657.5444 : 1"
       id="perspective890" /><inkscape:perspective
       sodipodi:type="inkscape:persp3d"
       inkscape:vp_x="-465.85493 : -1008.8212 : 1"
       inkscape:vp_y="0 : 1405.8819 : 0"
       inkscape:vp_z="3428.9236 : -1008.8212 : 1"
       inkscape:persp3d-origin="1481.5343 : -1708.493 : 1"
       id="perspective845" /></defs><sodipodi:namedview
     pagecolor="#ffffff"
     bordercolor="#666666"
     borderopacity="1"
     objecttolerance="10"
     gridtolerance="10"
     guidetolerance="10"
     inkscape:pageopacity="0"
     inkscape:pageshadow="2"
     inkscape:window-width="1920"
     inkscape:window-height="1056"
     id="namedview4"
     showgrid="false"
     inkscape:zoom="0.22250293"
     inkscape:cx="2088.5591"
     inkscape:cy="1075.2695"
     inkscape:window-x="0"
     inkscape:window-y="0"
     inkscape:window-maximized="1"
     inkscape:current-layer="layer1"
     fit-margin-top="100"
     fit-margin-left="100"
     fit-margin-right="100"
     fit-margin-bottom="100"
     showguides="false"><inkscape:grid
       type="xygrid"
       id="grid3748"
       spacingx="15.000001"
       spacingy="30"
       originx="1740.0571"
       originy="-154.3762" /></sodipodi:namedview><g
     inkscape:groupmode="layer"
     id="layer1"
     inkscape:label="title"
     style="display:inline"
     transform="translate(1190.4968,1141.4982)"><text
   transform="scale(0.94703571,1.0559264)"
   style="font-variant:normal;font-weight:normal;font-stretch:normal;font-size:28.20990753px;line-height:0%;font-family:Times;-inkscape-font-specification:Times-Roman;writing-mode:lr-tb;display:inline;fill:#ff7b28;fill-opacity:1;fill-rule:nonzero;stroke:#ad4400;stroke-width:12.2510004;stroke-miterlimit:4;stroke-dasharray:none;stroke-opacity:1"
   id="text24"
   x="-1172.5992"
   y="1225.4863"><tspan
     x="-1172.5992"
     sodipodi:role="line"
     id="tspan28"
     y="1225.4863"
     style="font-style:normal;font-variant:normal;font-weight:normal;font-stretch:normal;font-size:501.50949097px;line-height:1.25;font-family:Orbitron;-inkscape-font-specification:Orbitron;letter-spacing:20px;fill:#ff7b28;fill-opacity:1;stroke:#ad4400;stroke-width:12.2510004;stroke-miterlimit:4;stroke-dasharray:none;stroke-opacity:1">RECTIFY</tspan></text>



















<flowRoot
   xml:space="preserve"
   id="flowRoot948"
   style="font-style:normal;font-weight:normal;font-size:40px;line-height:1.25;font-family:sans-serif;letter-spacing:-34.54000092px;word-spacing:0px;fill:#000000;fill-opacity:1;stroke:none"
   transform="matrix(2.0280096,0,0,2.0280096,-1854.7723,-690.78327)"><flowRegion
     id="flowRegion950"><rect
       id="rect952"
       width="1575.0001"
       height="1297.0547"
       x="-134.70581"
       y="-120.42929" /></flowRegion><flowPara
     id="flowPara954" /></flowRoot><g
   id="g843"
   transform="translate(56.822143)"><g
     transform="translate(40.570006)"
     id="g921"><g
       id="g911"
       transform="translate(157.3013,-8.9886457)"><path
         id="path866"
         d="m 561.95394,440.16088 -691.70118,297.51214 v -840.47179 l 691.70118,-297.49759 z m 0,0"
         inkscape:connector-curvature="0"
         style="fill:#ffc7c7;fill-opacity:1;stroke-width:3.71890163" /><path
         id="path868"
         d="m -129.74724,-697.8085 691.70118,297.51214 -691.70118,297.49759 -691.71572,-297.49759 z m 0,0"
         inkscape:connector-curvature="0"
         style="fill:#bde0c4;fill-opacity:1;stroke-width:3.71890163" /><path
         id="path870"
         d="m -821.46296,440.16088 v -840.45724 l 691.71572,297.49759 v 840.47179 z m 0,0"
         inkscape:connector-curvature="0"
         style="fill:#daf1fd;fill-opacity:1;stroke-width:3.71890163" /><path
         style="stroke-width:3.71890163"
         id="path872"
         d="m 226.3376,254.2158 c -20.54113,0 -37.18902,16.66243 -37.18902,37.18902 0,20.52658 16.64789,37.18901 37.18902,37.18901 20.52659,0 37.18902,-16.66243 37.18902,-37.18901 0,-20.52659 -16.66243,-37.18902 -37.18902,-37.18902 z m 0,0"
         inkscape:connector-curvature="0" /><path
         style="stroke-width:3.71890163"
         id="path874"
         d="m -93.487948,-400.29636 c 0,-20.54113 -16.662432,-37.18902 -37.189012,-37.18902 -20.52659,0 -37.18902,16.64789 -37.18902,37.18902 0,20.52659 16.66243,37.18902 37.18902,37.18902 20.52658,0 37.189012,-16.66243 37.189012,-37.18902 z m 0,0"
         inkscape:connector-curvature="0" /><path
         style="stroke-width:3.71890163"
         id="path876"
         d="m -487.69153,328.59383 c 20.52659,0 37.18902,-16.66243 37.18902,-37.18901 0,-20.52659 -16.66243,-37.18902 -37.18902,-37.18902 -20.52659,0 -37.18901,16.66243 -37.18901,37.18902 0,20.52658 16.66242,37.18901 37.18901,37.18901 z m 0,0"
         inkscape:connector-curvature="0" /><path
         style="stroke-width:3.71890163"
         id="path878"
         d="M 799.26635,505.31429 598.21323,415.98802 v -816.28438 c 0,-14.73035 -8.81785,-28.37117 -22.83636,-34.32721 L -93.487948,-722.30095 v -273.01968 c 0,-20.54117 -16.662432,-37.18897 -37.189012,-37.18897 -20.54114,0 -37.18902,16.6478 -37.18902,37.18897 v 273.01968 l -668.86481,287.67738 c -13.29217,5.52026 -22.83638,18.98674 -22.83638,34.32721 v 816.28438 l -201.05313,89.32627 c -18.7688,8.35303 -27.2235,30.31779 -18.885,49.0866 8.2803,18.65264 30.187,27.28164 49.0866,18.88507 l 208.27298,-92.53672 676.78199,291.07668 c 8.94861,3.84963 19.88743,4.08206 29.38803,0 l 676.76748,-291.07668 208.27304,92.53672 c 18.9722,8.42562 40.83528,-0.30495 49.0866,-18.88507 8.33848,-18.76881 -0.11603,-40.73357 -18.88507,-49.0866 z M -167.86598,-641.32768 v 92.27525 c 0,20.52659 16.64788,37.18902 37.18902,37.18902 20.52658,0 37.189012,-16.66243 37.189012,-37.18902 v -92.27525 l 560.391998,241.03132 -597.58101,257.02549 -597.58102,-257.02549 z m -421.76124,978.05661 c -8.35299,-18.76881 -30.33229,-27.20897 -49.08656,-18.88503 l -146.48988,65.09528 v -726.76926 l 617.33768,265.523778 V 681.1922 l -561.6849,-241.58331 121.03863,-53.77882 c 18.76882,-8.35302 27.22352,-30.33229 18.88503,-49.10114 z M -93.487948,681.1922 V -78.306302 L 523.83519,-343.83008 V 382.93918 L 377.35985,317.8584 c -18.78335,-8.33844 -40.74811,0.1019 -49.08656,18.88507 -8.33849,18.76881 0.11603,40.73358 18.88503,49.0866 l 121.03865,53.77882 z m 0,0"
         inkscape:connector-curvature="0" /></g></g></g></g></svg>